# xmcd
#
# Track frame offsets: 
#        150
#        11132
#        22555
#        33754
#        45739
#        54431
#        65756
#        75285
#        84815
#        96653
#        106516
#        117021
#        129936
#        140210
#        152212
#        163010
#        173152
#        183774
#        193853
#        203168
#        214009
#        224392
#        234592
#        244137
#        253340
#        263361
#        274642
#        286239
#        299831
#        311287
#        323088
#        333493
#        341217
#
# Disc length: 4648 seconds
#
# Revision: 0
# Processed by: cddbd v1.5.2PL0 Copyright (c) Steve Scherf et al.
# Submitted via: ExactAudioCopyFreeDBPlugin 1.0
#
DISCID=d7122621
DTITLE=Various Artist - Tennessee Rock 'N' Billy 1955
DYEAR=2006
DGENRE=Rockabilly
TTITLE0=The Sons of the Pioneers - The Tennessee Rock And Roll
TTITLE1=Hayden Thompson - Act Like You Love Me
TTITLE2=Elvis Presley - I Forgot To Remember To Forget
TTITLE3=Mac and Jake - Yakety Yak
TTITLE4=The Tunesmiths - Baby, I'm Ready
TTITLE5=Eddie Bond - Talking Off The Wall
TTITLE6=Johnny Burnette - Go Mule Go
TTITLE7=Curley Griffin - You Gotta Play Fair
TTITLE8=Carl Perkins - Gone, Gone, Gone
TTITLE9=Lloyd McCullough - Watch That Girl
TTITLE10=Jess Hooper - Sleepy Time Blues
TTITLE11=Smokey Joe Baugh - Hula Bop
TTITLE12=The Tunesmiths - Oh Stop!
TTITLE13=Mac Sales - A Gal Names Joe
TTITLE14=Barney Burcham - Can't Steal My Way Around
TTITLE15=Ernie Chaffin - Get Me On Your Mind
TTITLE16=Red Hadley's Wranglers - Ring Out Those Bells
TTITLE17=Jack Earls - Hey Jim
TTITLE18=Lloyd McCullough - Oh Darling
TTITLE19=Johnny Burnette - You're Undecided
TTITLE20=The Carlisles - Nine Have Tried (And Nine Have Died)
TTITLE21=Rusty And Doug Kershaw (With Wiley Barkdull) - So Lovely Baby
TTITLE22=Eddie Bond - Double Duty Lovin'
TTITLE23=Jess Hooper - All Messed Up
TTITLE24=Red Hadley - Brother, That's All!
TTITLE25=Smokey Joe Baugh - Listen To Me
TTITLE26=Hayden Thompson - I Feel The Blues Comin' On
TTITLE27=Jack Earls - They Can't Keep Me From You
TTITLE28=Carl Perkins - You Can't Make Love To Somebody
TTITLE29=Elvis Presley - I'm Left, You're Right, She's Gone
TTITLE30=Ernie Chaffin - I Can't Lose Thye Blues
TTITLE31=Johnny Cash - Rock 'n' Roll Ruby
TTITLE32=Johnny Cash - You're My Baby
EXTD=
EXTT0=
EXTT1=
EXTT2=
EXTT3=
EXTT4=
EXTT5=
EXTT6=
EXTT7=
EXTT8=
EXTT9=
EXTT10=
EXTT11=
EXTT12=
EXTT13=
EXTT14=
EXTT15=
EXTT16=
EXTT17=
EXTT18=
EXTT19=
EXTT20=
EXTT21=
EXTT22=
EXTT23=
EXTT24=
EXTT25=
EXTT26=
EXTT27=
EXTT28=
EXTT29=
EXTT30=
EXTT31=
EXTT32=
PLAYORDER=
